{
  "accessors": [
    {
      "bufferView": 2,
      "componentType": 5126,
      "count": 23042,
      "max": [
        0.20411737263202667,
        0.15391546487808228,
        1.5869735747742197e-08
      ],
      "min": [
        -0.15065982937812805,
        -0.15141095221042633,
        -0.09816023707389832
      ],
      "type": "VEC3"
    },
    {
      "bufferView": 2,
      "byteOffset": 276504,
      "componentType": 5126,
      "count": 23042,
      "max": [
        1.0,
        1.0,
        1.0
      ],
      "min": [
        -1.0,
        -1.0,
        -1.0
      ],
      "type": "VEC3"
    },
    {
      "bufferView": 1,
      "componentType": 5126,
      "count": 23042,
      "max": [
        175.07366943359375,
        27.235137939453125
      ],
      "min": [
        -130.41183471679688,
        -23.752197265625
      ],
      "type": "VEC2"
    },
    {
      "bufferView": 1,
      "byteOffset": 184336,
      "componentType": 5126,
      "count": 23042,
      "max": [
        0.9981456995010376,
        0.9981383681297302
      ],
      "min": [
        0.00390625,
        0.00390625
      ],
      "type": "VEC2"
    },
    {
      "bufferView": 0,
      "componentType": 5125,
      "count": 2706,
      "type": "SCALAR"
    },
    {
      "bufferView": 2,
      "byteOffset": 553008,
      "componentType": 5126,
      "count": 23042,
      "max": [
        0.20411737263202667,
        0.15391546487808228,
        1.5869735747742197e-08
      ],
      "min": [
        -0.15065982937812805,
        -0.15141095221042633,
        -0.09816023707389832
      ],
      "type": "VEC3"
    },
    {
      "bufferView": 2,
      "byteOffset": 829512,
      "componentType": 5126,
      "count": 23042,
      "max": [
        1.0,
        1.0,
        1.0
      ],
      "min": [
        -1.0,
        -1.0,
        -1.0
      ],
      "type": "VEC3"
    },
    {
      "bufferView": 1,
      "byteOffset": 368672,
      "componentType": 5126,
      "count": 23042,
      "max": [
        175.07366943359375,
        27.235137939453125
      ],
      "min": [
        -130.41183471679688,
        -23.752197265625
      ],
      "type": "VEC2"
    },
    {
      "bufferView": 1,
      "byteOffset": 553008,
      "componentType": 5126,
      "count": 23042,
      "max": [
        0.9981456995010376,
        0.9981383681297302
      ],
      "min": [
        0.00390625,
        0.00390625
      ],
      "type": "VEC2"
    },
    {
      "bufferView": 0,
      "byteOffset": 10824,
      "componentType": 5125,
      "count": 1947,
      "type": "SCALAR"
    },
    {
      "bufferView": 2,
      "byteOffset": 1106016,
      "componentType": 5126,
      "count": 23042,
      "max": [
        0.20411737263202667,
        0.15391546487808228,
        1.5869735747742197e-08
      ],
      "min": [
        -0.15065982937812805,
        -0.15141095221042633,
        -0.09816023707389832
      ],
      "type": "VEC3"
    },
    {
      "bufferView": 2,
      "byteOffset": 1382520,
      "componentType": 5126,
      "count": 23042,
      "max": [
        1.0,
        1.0,
        1.0
      ],
      "min": [
        -1.0,
        -1.0,
        -1.0
      ],
      "type": "VEC3"
    },
    {
      "bufferView": 1,
      "byteOffset": 737344,
      "componentType": 5126,
      "count": 23042,
      "max": [
        175.07366943359375,
        27.235137939453125
      ],
      "min": [
        -130.41183471679688,
        -23.752197265625
      ],
      "type": "VEC2"
    },
    {
      "bufferView": 1,
      "byteOffset": 921680,
      "componentType": 5126,
      "count": 23042,
      "max": [
        0.9981456995010376,
        0.9981383681297302
      ],
      "min": [
        0.00390625,
        0.00390625
      ],
      "type": "VEC2"
    },
    {
      "bufferView": 0,
      "byteOffset": 18612,
      "componentType": 5125,
      "count": 444,
      "type": "SCALAR"
    },
    {
      "bufferView": 2,
      "byteOffset": 1659024,
      "componentType": 5126,
      "count": 23042,
      "max": [
        0.20411737263202667,
        0.15391546487808228,
        1.5869735747742197e-08
      ],
      "min": [
        -0.15065982937812805,
        -0.15141095221042633,
        -0.09816023707389832
      ],
      "type": "VEC3"
    },
    {
      "bufferView": 2,
      "byteOffset": 1935528,
      "componentType": 5126,
      "count": 23042,
      "max": [
        1.0,
        1.0,
        1.0
      ],
      "min": [
        -1.0,
        -1.0,
        -1.0
      ],
      "type": "VEC3"
    },
    {
      "bufferView": 1,
      "byteOffset": 1106016,
      "componentType": 5126,
      "count": 23042,
      "max": [
        175.07366943359375,
        27.235137939453125
      ],
      "min": [
        -130.41183471679688,
        -23.752197265625
      ],
      "type": "VEC2"
    },
    {
      "bufferView": 1,
      "byteOffset": 1290352,
      "componentType": 5126,
      "count": 23042,
      "max": [
        0.9981456995010376,
        0.9981383681297302
      ],
      "min": [
        0.00390625,
        0.00390625
      ],
      "type": "VEC2"
    },
    {
      "bufferView": 0,
      "byteOffset": 20388,
      "componentType": 5125,
      "count": 180,
      "type": "SCALAR"
    },
    {
      "bufferView": 2,
      "byteOffset": 2212032,
      "componentType": 5126,
      "count": 23042,
      "max": [
        0.20411737263202667,
        0.15391546487808228,
        1.5869735747742197e-08
      ],
      "min": [
        -0.15065982937812805,
        -0.15141095221042633,
        -0.09816023707389832
      ],
      "type": "VEC3"
    },
    {
      "bufferView": 2,
      "byteOffset": 2488536,
      "componentType": 5126,
      "count": 23042,
      "max": [
        1.0,
        1.0,
        1.0
      ],
      "min": [
        -1.0,
        -1.0,
        -1.0
      ],
      "type": "VEC3"
    },
    {
      "bufferView": 1,
      "byteOffset": 1474688,
      "componentType": 5126,
      "count": 23042,
      "max": [
        175.07366943359375,
        27.235137939453125
      ],
      "min": [
        -130.41183471679688,
        -23.752197265625
      ],
      "type": "VEC2"
    },
    {
      "bufferView": 1,
      "byteOffset": 1659024,
      "componentType": 5126,
      "count": 23042,
      "max": [
        0.9981456995010376,
        0.9981383681297302
      ],
      "min": [
        0.00390625,
        0.00390625
      ],
      "type": "VEC2"
    },
    {
      "bufferView": 0,
      "byteOffset": 21108,
      "componentType": 5125,
      "count": 15633,
      "type": "SCALAR"
    },
    {
      "bufferView": 2,
      "byteOffset": 2765040,
      "componentType": 5126,
      "count": 23042,
      "max": [
        0.20411737263202667,
        0.15391546487808228,
        1.5869735747742197e-08
      ],
      "min": [
        -0.15065982937812805,
        -0.15141095221042633,
        -0.09816023707389832
      ],
      "type": "VEC3"
    },
    {
      "bufferView": 2,
      "byteOffset": 3041544,
      "componentType": 5126,
      "count": 23042,
      "max": [
        1.0,
        1.0,
        1.0
      ],
      "min": [
        -1.0,
        -1.0,
        -1.0
      ],
      "type": "VEC3"
    },
    {
      "bufferView": 1,
      "byteOffset": 1843360,
      "componentType": 5126,
      "count": 23042,
      "max": [
        175.07366943359375,
        27.235137939453125
      ],
      "min": [
        -130.41183471679688,
        -23.752197265625
      ],
      "type": "VEC2"
    },
    {
      "bufferView": 1,
      "byteOffset": 2027696,
      "componentType": 5126,
      "count": 23042,
      "max": [
        0.9981456995010376,
        0.9981383681297302
      ],
      "min": [
        0.00390625,
        0.00390625
      ],
      "type": "VEC2"
    },
    {
      "bufferView": 0,
      "byteOffset": 83640,
      "componentType": 5125,
      "count": 3648,
      "type": "SCALAR"
    },
    {
      "bufferView": 2,
      "byteOffset": 3318048,
      "componentType": 5126,
      "count": 23042,
      "max": [
        0.20411737263202667,
        0.15391546487808228,
        1.5869735747742197e-08
      ],
      "min": [
        -0.15065982937812805,
        -0.15141095221042633,
        -0.09816023707389832
      ],
      "type": "VEC3"
    },
    {
      "bufferView": 2,
      "byteOffset": 3594552,
      "componentType": 5126,
      "count": 23042,
      "max": [
        1.0,
        1.0,
        1.0
      ],
      "min": [
        -1.0,
        -1.0,
        -1.0
      ],
      "type": "VEC3"
    },
    {
      "bufferView": 1,
      "byteOffset": 2212032,
      "componentType": 5126,
      "count": 23042,
      "max": [
        175.07366943359375,
        27.235137939453125
      ],
      "min": [
        -130.41183471679688,
        -23.752197265625
      ],
      "type": "VEC2"
    },
    {
      "bufferView": 1,
      "byteOffset": 2396368,
      "componentType": 5126,
      "count": 23042,
      "max": [
        0.9981456995010376,
        0.9981383681297302
      ],
      "min": [
        0.00390625,
        0.00390625
      ],
      "type": "VEC2"
    },
    {
      "bufferView": 0,
      "byteOffset": 98232,
      "componentType": 5125,
      "count": 5208,
      "type": "SCALAR"
    },
    {
      "bufferView": 2,
      "byteOffset": 3871056,
      "componentType": 5126,
      "count": 23042,
      "max": [
        0.20411737263202667,
        0.15391546487808228,
        1.5869735747742197e-08
      ],
      "min": [
        -0.15065982937812805,
        -0.15141095221042633,
        -0.09816023707389832
      ],
      "type": "VEC3"
    },
    {
      "bufferView": 2,
      "byteOffset": 4147560,
      "componentType": 5126,
      "count": 23042,
      "max": [
        1.0,
        1.0,
        1.0
      ],
      "min": [
        -1.0,
        -1.0,
        -1.0
      ],
      "type": "VEC3"
    },
    {
      "bufferView": 1,
      "byteOffset": 2580704,
      "componentType": 5126,
      "count": 23042,
      "max": [
        175.07366943359375,
        27.235137939453125
      ],
      "min": [
        -130.41183471679688,
        -23.752197265625
      ],
      "type": "VEC2"
    },
    {
      "bufferView": 1,
      "byteOffset": 2765040,
      "componentType": 5126,
      "count": 23042,
      "max": [
        0.9981456995010376,
        0.9981383681297302
      ],
      "min": [
        0.00390625,
        0.00390625
      ],
      "type": "VEC2"
    },
    {
      "bufferView": 0,
      "byteOffset": 119064,
      "componentType": 5125,
      "count": 417,
      "type": "SCALAR"
    },
    {
      "bufferView": 2,
      "byteOffset": 4424064,
      "componentType": 5126,
      "count": 23042,
      "max": [
        0.20411737263202667,
        0.15391546487808228,
        1.5869735747742197e-08
      ],
      "min": [
        -0.15065982937812805,
        -0.15141095221042633,
        -0.09816023707389832
      ],
      "type": "VEC3"
    },
    {
      "bufferView": 2,
      "byteOffset": 4700568,
      "componentType": 5126,
      "count": 23042,
      "max": [
        1.0,
        1.0,
        1.0
      ],
      "min": [
        -1.0,
        -1.0,
        -1.0
      ],
      "type": "VEC3"
    },
    {
      "bufferView": 1,
      "byteOffset": 2949376,
      "componentType": 5126,
      "count": 23042,
      "max": [
        175.07366943359375,
        27.235137939453125
      ],
      "min": [
        -130.41183471679688,
        -23.752197265625
      ],
      "type": "VEC2"
    },
    {
      "bufferView": 1,
      "byteOffset": 3133712,
      "componentType": 5126,
      "count": 23042,
      "max": [
        0.9981456995010376,
        0.9981383681297302
      ],
      "min": [
        0.00390625,
        0.00390625
      ],
      "type": "VEC2"
    },
    {
      "bufferView": 0,
      "byteOffset": 120732,
      "componentType": 5125,
      "count": 6078,
      "type": "SCALAR"
    },
    {
      "bufferView": 2,
      "byteOffset": 4977072,
      "componentType": 5126,
      "count": 23042,
      "max": [
        0.20411737263202667,
        0.15391546487808228,
        1.5869735747742197e-08
      ],
      "min": [
        -0.15065982937812805,
        -0.15141095221042633,
        -0.09816023707389832
      ],
      "type": "VEC3"
    },
    {
      "bufferView": 2,
      "byteOffset": 5253576,
      "componentType": 5126,
      "count": 23042,
      "max": [
        1.0,
        1.0,
        1.0
      ],
      "min": [
        -1.0,
        -1.0,
        -1.0
      ],
      "type": "VEC3"
    },
    {
      "bufferView": 1,
      "byteOffset": 3318048,
      "componentType": 5126,
      "count": 23042,
      "max": [
        175.07366943359375,
        27.235137939453125
      ],
      "min": [
        -130.41183471679688,
        -23.752197265625
      ],
      "type": "VEC2"
    },
    {
      "bufferView": 1,
      "byteOffset": 3502384,
      "componentType": 5126,
      "count": 23042,
      "max": [
        0.9981456995010376,
        0.9981383681297302
      ],
      "min": [
        0.00390625,
        0.00390625
      ],
      "type": "VEC2"
    },
    {
      "bufferView": 0,
      "byteOffset": 145044,
      "componentType": 5125,
      "count": 11223,
      "type": "SCALAR"
    }
  ],
  "asset": {
    "extras": {
      "author": "forux (https://sketchfab.com/forux)",
      "license": "CC-BY-4.0 (http://creativecommons.org/licenses/by/4.0/)",
      "source": "https://sketchfab.com/3d-models/test-gltf-1-e0e2cf91551543a58be22104d98bff40",
      "title": "test GLTF 1"
    },
    "generator": "Sketchfab-12.68.0",
    "version": "2.0"
  },
  "bufferViews": [
    {
      "buffer": 0,
      "byteLength": 189936,
      "name": "floatBufferViews",
      "target": 34963
    },
    {
      "buffer": 0,
      "byteLength": 3686720,
      "byteOffset": 189936,
      "byteStride": 8,
      "name": "floatBufferViews",
      "target": 34962
    },
    {
      "buffer": 0,
      "byteLength": 5530080,
      "byteOffset": 3876656,
      "byteStride": 12,
      "name": "floatBufferViews",
      "target": 34962
    }
  ],
  "buffers": [
    {
      "byteLength": 9406736,
      "uri": "scene.bin"
    }
  ],
  "images": [
    {
      "uri": "textures/keyboard_baseColor.jpeg"
    }
  ],
  "materials": [
    {
      "name": "bulb",
      "pbrMetallicRoughness": {
        "baseColorFactor": [
          0.801471,
          0.648418,
          0.24162,
          1.0
        ],
        "metallicFactor": 0.0,
        "roughnessFactor": 0.5
      }
    },
    {
      "name": "plastic_2_matte",
      "pbrMetallicRoughness": {
        "baseColorFactor": [
          0.0235294,
          0.0235294,
          0.0235294,
          1.0
        ],
        "metallicFactor": 0.0,
        "roughnessFactor": 0.5
      }
    },
    {
      "name": "vray_ruler_2",
      "pbrMetallicRoughness": {
        "metallicFactor": 0.0,
        "roughnessFactor": 0.5
      }
    },
    {
      "name": "vray_ruler_1",
      "pbrMetallicRoughness": {
        "baseColorFactor": [
          0.0,
          0.0,
          0.0,
          1.0
        ],
        "metallicFactor": 0.0,
        "roughnessFactor": 0.5
      }
    },
    {
      "name": "metal_2_matte",
      "pbrMetallicRoughness": {
        "baseColorFactor": [
          0.0,
          0.0,
          0.0,
          1.0
        ],
        "metallicFactor": 0.283,
        "roughnessFactor": 0.5
      }
    },
    {
      "name": "metal_1_glossy",
      "pbrMetallicRoughness": {
        "baseColorFactor": [
          0.647059,
          0.647059,
          0.647059,
          1.0
        ],
        "roughnessFactor": 0.5
      }
    },
    {
      "name": "plastic_1_glossy",
      "pbrMetallicRoughness": {
        "baseColorFactor": [
          0.0117647,
          0.0117647,
          0.0117647,
          1.0
        ],
        "metallicFactor": 0.3,
        "roughnessFactor": 0.5
      }
    },
    {
      "name": "roller",
      "pbrMetallicRoughness": {
        "baseColorFactor": [
          0.227941,
          0.227941,
          0.227941,
          1.0
        ],
        "metallicFactor": 0.283,
        "roughnessFactor": 0.5
      }
    },
    {
      "name": "metal_3_dark",
      "pbrMetallicRoughness": {
        "baseColorFactor": [
          0.109804,
          0.109804,
          0.109804,
          1.0
        ],
        "metallicFactor": 0.472,
        "roughnessFactor": 0.5
      }
    },
    {
      "name": "keyboard",
      "pbrMetallicRoughness": {
        "baseColorTexture": {
          "index": 0
        },
        "metallicFactor": 0.0,
        "roughnessFactor": 0.5
      }
    }
  ],
  "meshes": [
    {
      "name": "Object_0",
      "primitives": [
        {
          "attributes": {
            "NORMAL": 1,
            "POSITION": 0,
            "TEXCOORD_0": 2,
            "TEXCOORD_1": 3
          },
          "indices": 4,
          "material": 0,
          "mode": 4
        }
      ]
    },
    {
      "name": "Object_1",
      "primitives": [
        {
          "attributes": {
            "NORMAL": 6,
            "POSITION": 5,
            "TEXCOORD_0": 7,
            "TEXCOORD_1": 8
          },
          "indices": 9,
          "material": 1,
          "mode": 4
        }
      ]
    },
    {
      "name": "Object_2",
      "primitives": [
        {
          "attributes": {
            "NORMAL": 11,
            "POSITION": 10,
            "TEXCOORD_0": 12,
            "TEXCOORD_1": 13
          },
          "indices": 14,
          "material": 2,
          "mode": 4
        }
      ]
    },
    {
      "name": "Object_3",
      "primitives": [
        {
          "attributes": {
            "NORMAL": 16,
            "POSITION": 15,
            "TEXCOORD_0": 17,
            "TEXCOORD_1": 18
          },
          "indices": 19,
          "material": 3,
          "mode": 4
        }
      ]
    },
    {
      "name": "Object_4",
      "primitives": [
        {
          "attributes": {
            "NORMAL": 21,
            "POSITION": 20,
            "TEXCOORD_0": 22,
            "TEXCOORD_1": 23
          },
          "indices": 24,
          "material": 4,
          "mode": 4
        }
      ]
    },
    {
      "name": "Object_5",
      "primitives": [
        {
          "attributes": {
            "NORMAL": 26,
            "POSITION": 25,
            "TEXCOORD_0": 27,
            "TEXCOORD_1": 28
          },
          "indices": 29,
          "material": 5,
          "mode": 4
        }
      ]
    },
    {
      "name": "Object_6",
      "primitives": [
        {
          "attributes": {
            "NORMAL": 31,
            "POSITION": 30,
            "TEXCOORD_0": 32,
            "TEXCOORD_1": 33
          },
          "indices": 34,
          "material": 6,
          "mode": 4
        }
      ]
    },
    {
      "name": "Object_7",
      "primitives": [
        {
          "attributes": {
            "NORMAL": 36,
            "POSITION": 35,
            "TEXCOORD_0": 37,
            "TEXCOORD_1": 38
          },
          "indices": 39,
          "material": 7,
          "mode": 4
        }
      ]
    },
    {
      "name": "Object_8",
      "primitives": [
        {
          "attributes": {
            "NORMAL": 41,
            "POSITION": 40,
            "TEXCOORD_0": 42,
            "TEXCOORD_1": 43
          },
          "indices": 44,
          "material": 8,
          "mode": 4
        }
      ]
    },
    {
      "name": "Object_9",
      "primitives": [
        {
          "attributes": {
            "NORMAL": 46,
            "POSITION": 45,
            "TEXCOORD_0": 47,
            "TEXCOORD_1": 48
          },
          "indices": 49,
          "material": 9,
          "mode": 4
        }
      ]
    }
  ],
  "nodes": [
    {
      "children": [
        1
      ],
      "matrix": [
        1.0,
        0.0,
        0.0,
        0.0,
        0.0,
        2.220446049250313e-16,
        -1.0,
        0.0,
        0.0,
        1.0,
        2.220446049250313e-16,
        0.0,
        0.0,
        0.0,
        0.0,
        1.0
      ],
      "name": "Sketchfab_model"
    },
    {
      "children": [
        2
      ],
      "name": "root"
    },
    {
      "children": [
        3
      ],
      "matrix": [
        1.0,
        0.0,
        0.0,
        0.0,
        0.0,
        2.220446049250313e-16,
        1.0,
        0.0,
        0.0,
        -1.0,
        2.220446049250313e-16,
        0.0,
        0.0,
        0.0,
        0.0,
        1.0
      ],
      "name": "GLTF_SceneRootNode"
    },
    {
      "children": [
        4
      ],
      "name": "UnityGlTF_root_0"
    },
    {
      "children": [
        5,
        6,
        7,
        8,
        9,
        10,
        11,
        12,
        13,
        14
      ],
      "matrix": [
        2.3841860752327193e-07,
        -1.1920930376163597e-07,
        1.0,
        0.0,
        -0.9999998807907104,
        1.1920930376163597e-07,
        2.3841860752327193e-07,
        0.0,
        -1.1920930376163597e-07,
        -1.0,
        -1.1920930376163597e-07,
        0.0,
        -0.20362789928913116,
        0.7609606981277466,
        3.6110000610351563,
        1.0
      ],
      "name": "node_09 Silver Reed typewriter_33504_1"
    },
    {
      "mesh": 0,
      "name": "Object_5"
    },
    {
      "mesh": 1,
      "name": "Object_6"
    },
    {
      "mesh": 2,
      "name": "Object_7"
    },
    {
      "mesh": 3,
      "name": "Object_8"
    },
    {
      "mesh": 4,
      "name": "Object_9"
    },
    {
      "mesh": 5,
      "name": "Object_10"
    },
    {
      "mesh": 6,
      "name": "Object_11"
    },
    {
      "mesh": 7,
      "name": "Object_12"
    },
    {
      "mesh": 8,
      "name": "Object_13"
    },
    {
      "mesh": 9,
      "name": "Object_14"
    }
  ],
  "samplers": [
    {
      "magFilter": 9729,
      "minFilter": 9987,
      "wrapS": 10497,
      "wrapT": 10497
    }
  ],
  "scene": 0,
  "scenes": [
    {
      "name": "Sketchfab_Scene",
      "nodes": [
        0
      ]
    }
  ],
  "textures": [
    {
      "sampler": 0,
      "source": 0
    }
  ]
}
